<svg width="60" height="15" viewBox="0 0 60 15" fill="none" xmlns="http://www.w3.org/2000/svg">
<rect y="4.86841" width="5" height="13.1226" transform="rotate(-45 0 4.86841)" fill="#FF5656"/>
<rect x="26.9703" y="3.54761" width="5" height="14.9907" transform="rotate(-45 26.9703 3.54761)" fill="#FF5656"/>
<rect width="5" height="14.994" transform="matrix(-0.707107 -0.707107 -0.707107 0.707107 19.8799 3.53552)" fill="#FF5656"/>
<rect width="5" height="14.994" transform="matrix(-0.707107 -0.707107 -0.707107 0.707107 48.171 3.53552)" fill="#FF5656"/>
<rect x="12.8521" y="3.56378" width="5" height="14.9679" transform="rotate(-45 12.8521 3.56378)" fill="#FF5656"/>
<rect x="41.1432" y="3.56378" width="5" height="14.9679" transform="rotate(-45 41.1432 3.56378)" fill="#FF5656"/>
<rect width="5" height="14.7321" transform="matrix(-0.707107 -0.707107 -0.707107 0.707107 33.8516 3.72064)" fill="#FF5656"/>
<rect width="5" height="11.5409" transform="matrix(-0.707107 -0.707107 -0.707107 0.707107 59.8862 5.97717)" fill="#FF5656"/>
</svg>
